<svg xmlns="http://www.w3.org/2000/svg" viewBox="0 0 128 128"><path d="M25 48 19 14 51 34M77 34 109 14 103 49" fill="#e2b175"/><path d="m25 23 4 22 13-9m62-13-4 22-13-9" fill="#ecbbb1"/><rect x="22" y="34" width="84" height="73" rx="32" fill="#ebc38e"/><path d="m59 81 5 5 5-5" fill="#976344"/><path d="M20 77H7m15 10L9 93m99-16h13m-15 10 13 6" stroke="#a37756" stroke-width="3"/><circle cx="46" cy="65" r="4" fill="#343130"/><circle cx="82" cy="65" r="4" fill="#343130"/><circle cx="47" cy="64" r="1.2" fill="#fff"/><circle cx="83" cy="64" r="1.2" fill="#fff"/><ellipse cx="37" cy="77" rx="8" ry="4" fill="#e9a4a4" opacity=".5"/><ellipse cx="91" cy="77" rx="8" ry="4" fill="#e9a4a4" opacity=".5"/><path d="M55 84q9 10 18 0" fill="none" stroke="#6e5143" stroke-width="3" stroke-linecap="round"/></svg>