<svg xmlns="http://www.w3.org/2000/svg" viewBox="0 0 128 128"><path d="m64 7 11 11 19-2 4 18 16 10-6 18 8 18-18 11-7 20-20-3-14 12-15-12-19 1-5-18L5 81l9-17-7-19 20-11 4-20 18 4z" fill="#b79265"/><circle cx="64" cy="66" r="39" fill="#e5c48d"/><ellipse cx="52" cy="86" rx="15" ry="12" fill="#f1ddba"/><ellipse cx="76" cy="86" rx="15" ry="12" fill="#f1ddba"/><circle cx="46" cy="65" r="4" fill="#343130"/><circle cx="82" cy="65" r="4" fill="#343130"/><circle cx="47" cy="64" r="1.2" fill="#fff"/><circle cx="83" cy="64" r="1.2" fill="#fff"/><ellipse cx="37" cy="77" rx="8" ry="4" fill="#e9a4a4" opacity=".5"/><ellipse cx="91" cy="77" rx="8" ry="4" fill="#e9a4a4" opacity=".5"/><path d="m56 81 8 8 8-8" fill="#896546"/><path d="M55 84q9 10 18 0" fill="none" stroke="#6e5143" stroke-width="3" stroke-linecap="round"/></svg>