<?xml version="1.0" encoding="utf-8" standalone="no"?>
<!DOCTYPE svg PUBLIC "-//W3C//DTD SVG 1.1//EN"
  "http://www.w3.org/Graphics/SVG/1.1/DTD/svg11.dtd">
<svg xmlns:xlink="http://www.w3.org/1999/xlink" width="720pt" height="331.2pt" viewBox="0 0 720 331.2" xmlns="http://www.w3.org/2000/svg" version="1.1">
 <metadata>
  <rdf:RDF xmlns:dc="http://purl.org/dc/elements/1.1/" xmlns:cc="http://creativecommons.org/ns#" xmlns:rdf="http://www.w3.org/1999/02/22-rdf-syntax-ns#">
   <cc:Work>
    <dc:type rdf:resource="http://purl.org/dc/dcmitype/StillImage"/>
    <dc:date>2026-10-05T10:10:05.744198</dc:date>
    <dc:format>image/svg+xml</dc:format>
    <dc:creator>
     <cc:Agent>
      <dc:title>Matplotlib v3.10.9, https://matplotlib.org/</dc:title>
     </cc:Agent>
    </dc:creator>
   </cc:Work>
  </rdf:RDF>
 </metadata>
 <defs>
  <style type="text/css">*{stroke-linejoin: round; stroke-linecap: butt}</style>
 </defs>
 <g id="figure_1">
  <g id="patch_1">
   <path d="M 0 331.2 
L 720 331.2 
L 720 0 
L 0 0 
z
" style="fill: #ffffff"/>
  </g>
  <g id="axes_1">
   <g id="patch_2">
    <path d="M 35.35024 310.94976 
L 353.625 310.94976 
L 353.625 37.87697 
L 35.35024 37.87697 
z
" style="fill: #ffffff"/>
   </g>
   <g id="patch_3">
    <path d="M 49.817275 310.94976 
L 178.413137 310.94976 
L 178.413137 208.097485 
L 49.817275 208.097485 
z
" clip-path="url(#pa919fa655a)" style="fill: #b7c4a6"/>
   </g>
   <g id="patch_4">
    <path d="M 210.562103 310.94976 
L 339.157965 310.94976 
L 339.157965 79.532141 
L 210.562103 79.532141 
z
" clip-path="url(#pa919fa655a)" style="fill: #679380"/>
   </g>
   <g id="matplotlib.axis_1">
    <g id="xtick_1">
     <g id="line2d_1">
      <defs>
       <path id="md5a5689bf9" d="M 0 0 
L 0 3.5 
" style="stroke: #000000; stroke-width: 0.8"/>
      </defs>
      <g>
       <use xlink:href="#md5a5689bf9" x="114.115206" y="310.94976" style="stroke: #000000; stroke-width: 0.8"/>
      </g>
     </g>
     <g id="text_1">
      <!-- 每阶2只 -->
      <g transform="translate(96.340206 325.909135) scale(0.1 -0.1)">
       <defs>
        <path id="NotoSansCJKjp-Regular-6bcf" d="M 2502 2931 
C 2906 2746 3386 2445 3635 2208 
L 1722 2208 
L 1856 3219 
L 4800 3219 
L 4762 2208 
L 3674 2208 
L 3942 2490 
C 3693 2726 3187 3021 2778 3200 
L 2502 2931 
z
M 275 2221 
L 275 1786 
L 1190 1786 
C 1094 1158 992 550 902 109 
L 1389 77 
L 1434 320 
L 4608 320 
C 4570 128 4525 13 4480 -45 
C 4422 -122 4365 -141 4250 -141 
C 4122 -141 3827 -134 3507 -109 
C 3571 -218 3616 -384 3622 -493 
C 3936 -512 4262 -518 4448 -506 
C 4646 -486 4781 -435 4902 -269 
C 4979 -173 5037 6 5088 320 
L 5914 320 
L 5914 749 
L 5139 749 
C 5171 1024 5190 1363 5216 1786 
L 6138 1786 
L 6138 2221 
L 5235 2221 
L 5280 3411 
C 5280 3475 5286 3648 5286 3648 
L 1427 3648 
C 1382 3219 1318 2720 1254 2221 
L 275 2221 
z
M 4666 749 
L 3603 749 
L 3834 998 
C 3571 1254 3059 1581 2618 1792 
L 4742 1792 
C 4717 1357 4698 1018 4666 749 
z
M 2336 1523 
C 2746 1318 3226 1005 3494 749 
L 1504 749 
L 1664 1792 
L 2598 1792 
L 2336 1523 
z
M 1734 5414 
C 1402 4602 845 3776 262 3264 
C 384 3194 608 3046 710 2963 
C 1030 3290 1363 3718 1658 4192 
L 5901 4192 
L 5901 4634 
L 1920 4634 
C 2029 4845 2138 5056 2234 5274 
L 1734 5414 
z
" transform="scale(0.015625)"/>
        <path id="NotoSansCJKjp-Regular-9636" d="M 4736 2893 
L 4736 -493 
L 5203 -493 
L 5203 2893 
L 4736 2893 
z
M 3194 2886 
L 3194 1939 
C 3194 1203 3104 390 2310 -256 
C 2445 -320 2643 -442 2746 -538 
C 3571 173 3654 1088 3654 1933 
L 3654 2886 
L 3194 2886 
z
M 4006 5408 
C 3776 4640 3226 3725 2278 3110 
C 2387 3027 2528 2854 2598 2746 
C 3328 3251 3840 3904 4179 4570 
C 4621 3853 5248 3206 5869 2835 
C 5946 2957 6093 3123 6202 3219 
C 5504 3571 4794 4294 4403 5050 
L 4506 5331 
L 4006 5408 
z
M 512 5114 
L 512 -518 
L 986 -518 
L 986 4659 
L 1869 4659 
C 1696 4230 1466 3680 1242 3226 
C 1818 2720 1971 2291 1978 1933 
C 1978 1734 1933 1568 1818 1498 
C 1754 1453 1664 1440 1574 1434 
C 1453 1427 1299 1427 1126 1446 
C 1203 1312 1254 1126 1261 1005 
C 1427 992 1619 992 1766 1011 
C 1907 1030 2035 1062 2138 1133 
C 2342 1274 2432 1542 2432 1894 
C 2432 2298 2304 2758 1728 3290 
C 1984 3789 2272 4397 2496 4922 
L 2163 5133 
L 2093 5114 
L 512 5114 
z
" transform="scale(0.015625)"/>
        <path id="NotoSansCJKjp-Regular-32" d="M 282 0 
L 3232 0 
L 3232 506 
L 1933 506 
C 1696 506 1408 480 1165 461 
C 2266 1504 3008 2458 3008 3398 
C 3008 4230 2477 4774 1638 4774 
C 1043 4774 634 4506 256 4090 
L 595 3757 
C 858 4070 1184 4301 1568 4301 
C 2150 4301 2432 3910 2432 3373 
C 2432 2566 1754 1632 282 346 
L 282 0 
z
" transform="scale(0.015625)"/>
        <path id="NotoSansCJKjp-Regular-53ea" d="M 3776 1011 
C 4410 557 5184 -102 5549 -531 
L 5971 -230 
C 5581 205 4787 838 4160 1267 
L 3776 1011 
z
M 2163 1280 
C 1792 768 1043 186 371 -179 
C 486 -262 659 -416 755 -518 
C 1440 -134 2195 493 2675 1082 
L 2163 1280 
z
M 1062 4941 
L 1062 1491 
L 1542 1491 
L 1542 1722 
L 4973 1722 
L 4973 1523 
L 5472 1523 
L 5472 4941 
L 1062 4941 
z
M 1542 2182 
L 1542 4474 
L 4973 4474 
L 4973 2182 
L 1542 2182 
z
" transform="scale(0.015625)"/>
       </defs>
       <use xlink:href="#NotoSansCJKjp-Regular-6bcf"/>
       <use xlink:href="#NotoSansCJKjp-Regular-9636" transform="translate(99.999985 0)"/>
       <use xlink:href="#NotoSansCJKjp-Regular-32" transform="translate(199.999969 0)"/>
       <use xlink:href="#NotoSansCJKjp-Regular-53ea" transform="translate(255.499954 0)"/>
      </g>
     </g>
    </g>
    <g id="xtick_2">
     <g id="line2d_2">
      <g>
       <use xlink:href="#md5a5689bf9" x="274.860034" y="310.94976" style="stroke: #000000; stroke-width: 0.8"/>
      </g>
     </g>
     <g id="text_2">
      <!-- 高阶3只 -->
      <g transform="translate(257.085034 325.909135) scale(0.1 -0.1)">
       <defs>
        <path id="NotoSansCJKjp-Regular-9ad8" d="M 1939 3635 
L 4448 3635 
L 4448 3021 
L 1939 3021 
L 1939 3635 
z
M 1478 3987 
L 1478 2662 
L 4928 2662 
L 4928 3987 
L 1478 3987 
z
M 2918 5382 
L 2918 4768 
L 416 4768 
L 416 4346 
L 5978 4346 
L 5978 4768 
L 3411 4768 
L 3411 5382 
L 2918 5382 
z
M 704 2266 
L 704 -512 
L 1171 -512 
L 1171 1856 
L 5261 1856 
L 5261 70 
C 5261 -19 5235 -45 5120 -51 
C 5018 -58 4653 -58 4237 -45 
C 4301 -179 4371 -365 4390 -499 
C 4922 -499 5267 -499 5478 -422 
C 5683 -346 5741 -205 5741 64 
L 5741 2266 
L 704 2266 
z
M 2406 1088 
L 3994 1088 
L 3994 435 
L 2406 435 
L 2406 1088 
z
M 1984 1440 
L 1984 -243 
L 2406 -243 
L 2406 83 
L 4422 83 
L 4422 1440 
L 1984 1440 
z
" transform="scale(0.015625)"/>
        <path id="NotoSansCJKjp-Regular-33" d="M 1683 -83 
C 2522 -83 3194 416 3194 1254 
C 3194 1901 2752 2310 2202 2445 
L 2202 2477 
C 2701 2650 3034 3034 3034 3603 
C 3034 4346 2458 4774 1664 4774 
C 1126 4774 710 4538 358 4218 
L 672 3846 
C 941 4115 1267 4301 1645 4301 
C 2138 4301 2438 4006 2438 3558 
C 2438 3053 2112 2662 1139 2662 
L 1139 2214 
C 2227 2214 2598 1843 2598 1274 
C 2598 736 2208 403 1645 403 
C 1114 403 762 659 486 941 
L 186 563 
C 493 224 954 -83 1683 -83 
z
" transform="scale(0.015625)"/>
       </defs>
       <use xlink:href="#NotoSansCJKjp-Regular-9ad8"/>
       <use xlink:href="#NotoSansCJKjp-Regular-9636" transform="translate(99.999985 0)"/>
       <use xlink:href="#NotoSansCJKjp-Regular-33" transform="translate(199.999969 0)"/>
       <use xlink:href="#NotoSansCJKjp-Regular-53ea" transform="translate(255.499954 0)"/>
      </g>
     </g>
    </g>
   </g>
   <g id="matplotlib.axis_2">
    <g id="ytick_1">
     <g id="line2d_3">
      <defs>
       <path id="m435fed6c21" d="M 0 0 
L -3.5 0 
" style="stroke: #000000; stroke-width: 0.8"/>
      </defs>
      <g>
       <use xlink:href="#m435fed6c21" x="35.35024" y="310.94976" style="stroke: #000000; stroke-width: 0.8"/>
      </g>
     </g>
     <g id="text_3">
      <!-- 0 -->
      <g transform="translate(22.80024 314.929447) scale(0.1 -0.1)">
       <defs>
        <path id="NotoSansCJKjp-Regular-30" d="M 1779 -83 
C 2669 -83 3238 723 3238 2362 
C 3238 3987 2669 4774 1779 4774 
C 883 4774 320 3987 320 2362 
C 320 723 883 -83 1779 -83 
z
M 1779 390 
C 1248 390 883 986 883 2362 
C 883 3731 1248 4314 1779 4314 
C 2310 4314 2675 3731 2675 2362 
C 2675 986 2310 390 1779 390 
z
" transform="scale(0.015625)"/>
       </defs>
       <use xlink:href="#NotoSansCJKjp-Regular-30"/>
      </g>
     </g>
    </g>
    <g id="ytick_2">
     <g id="line2d_4">
      <g>
       <use xlink:href="#m435fed6c21" x="35.35024" y="278.808424" style="stroke: #000000; stroke-width: 0.8"/>
      </g>
     </g>
     <g id="text_4">
      <!-- 5 -->
      <g transform="translate(22.80024 282.788112) scale(0.1 -0.1)">
       <defs>
        <path id="NotoSansCJKjp-Regular-35" d="M 1677 -83 
C 2464 -83 3213 499 3213 1523 
C 3213 2560 2573 3021 1798 3021 
C 1517 3021 1306 2950 1094 2835 
L 1216 4192 
L 2982 4192 
L 2982 4691 
L 704 4691 
L 550 2502 
L 864 2304 
C 1133 2483 1331 2579 1645 2579 
C 2234 2579 2618 2182 2618 1510 
C 2618 826 2176 403 1619 403 
C 1075 403 730 653 467 922 
L 173 538 
C 493 224 941 -83 1677 -83 
z
" transform="scale(0.015625)"/>
       </defs>
       <use xlink:href="#NotoSansCJKjp-Regular-35"/>
      </g>
     </g>
    </g>
    <g id="ytick_3">
     <g id="line2d_5">
      <g>
       <use xlink:href="#m435fed6c21" x="35.35024" y="246.667088" style="stroke: #000000; stroke-width: 0.8"/>
      </g>
     </g>
     <g id="text_5">
      <!-- 10 -->
      <g transform="translate(17.25024 250.646776) scale(0.1 -0.1)">
       <defs>
        <path id="NotoSansCJKjp-Regular-31" d="M 563 0 
L 3136 0 
L 3136 486 
L 2195 486 
L 2195 4691 
L 1747 4691 
C 1491 4544 1190 4435 774 4358 
L 774 3987 
L 1613 3987 
L 1613 486 
L 563 486 
L 563 0 
z
" transform="scale(0.015625)"/>
       </defs>
       <use xlink:href="#NotoSansCJKjp-Regular-31"/>
       <use xlink:href="#NotoSansCJKjp-Regular-30" transform="translate(55.499985 0)"/>
      </g>
     </g>
    </g>
    <g id="ytick_4">
     <g id="line2d_6">
      <g>
       <use xlink:href="#m435fed6c21" x="35.35024" y="214.525752" style="stroke: #000000; stroke-width: 0.8"/>
      </g>
     </g>
     <g id="text_6">
      <!-- 15 -->
      <g transform="translate(17.25024 218.50544) scale(0.1 -0.1)">
       <use xlink:href="#NotoSansCJKjp-Regular-31"/>
       <use xlink:href="#NotoSansCJKjp-Regular-35" transform="translate(55.499985 0)"/>
      </g>
     </g>
    </g>
    <g id="ytick_5">
     <g id="line2d_7">
      <g>
       <use xlink:href="#m435fed6c21" x="35.35024" y="182.384416" style="stroke: #000000; stroke-width: 0.8"/>
      </g>
     </g>
     <g id="text_7">
      <!-- 20 -->
      <g transform="translate(17.25024 186.364104) scale(0.1 -0.1)">
       <use xlink:href="#NotoSansCJKjp-Regular-32"/>
       <use xlink:href="#NotoSansCJKjp-Regular-30" transform="translate(55.499985 0)"/>
      </g>
     </g>
    </g>
    <g id="ytick_6">
     <g id="line2d_8">
      <g>
       <use xlink:href="#m435fed6c21" x="35.35024" y="150.24308" style="stroke: #000000; stroke-width: 0.8"/>
      </g>
     </g>
     <g id="text_8">
      <!-- 25 -->
      <g transform="translate(17.25024 154.222768) scale(0.1 -0.1)">
       <use xlink:href="#NotoSansCJKjp-Regular-32"/>
       <use xlink:href="#NotoSansCJKjp-Regular-35" transform="translate(55.499985 0)"/>
      </g>
     </g>
    </g>
    <g id="ytick_7">
     <g id="line2d_9">
      <g>
       <use xlink:href="#m435fed6c21" x="35.35024" y="118.101744" style="stroke: #000000; stroke-width: 0.8"/>
      </g>
     </g>
     <g id="text_9">
      <!-- 30 -->
      <g transform="translate(17.25024 122.081432) scale(0.1 -0.1)">
       <use xlink:href="#NotoSansCJKjp-Regular-33"/>
       <use xlink:href="#NotoSansCJKjp-Regular-30" transform="translate(55.499985 0)"/>
      </g>
     </g>
    </g>
    <g id="ytick_8">
     <g id="line2d_10">
      <g>
       <use xlink:href="#m435fed6c21" x="35.35024" y="85.960409" style="stroke: #000000; stroke-width: 0.8"/>
      </g>
     </g>
     <g id="text_10">
      <!-- 35 -->
      <g transform="translate(17.25024 89.940096) scale(0.1 -0.1)">
       <use xlink:href="#NotoSansCJKjp-Regular-33"/>
       <use xlink:href="#NotoSansCJKjp-Regular-35" transform="translate(55.499985 0)"/>
      </g>
     </g>
    </g>
    <g id="ytick_9">
     <g id="line2d_11">
      <g>
       <use xlink:href="#m435fed6c21" x="35.35024" y="53.819073" style="stroke: #000000; stroke-width: 0.8"/>
      </g>
     </g>
     <g id="text_11">
      <!-- 40 -->
      <g transform="translate(17.25024 57.79876) scale(0.1 -0.1)">
       <defs>
        <path id="NotoSansCJKjp-Regular-34" d="M 2176 0 
L 2726 0 
L 2726 1293 
L 3354 1293 
L 3354 1760 
L 2726 1760 
L 2726 4691 
L 2080 4691 
L 128 1677 
L 128 1293 
L 2176 1293 
L 2176 0 
z
M 2176 1760 
L 736 1760 
L 1805 3360 
C 1939 3590 2067 3827 2182 4051 
L 2208 4051 
C 2195 3814 2176 3430 2176 3200 
L 2176 1760 
z
" transform="scale(0.015625)"/>
       </defs>
       <use xlink:href="#NotoSansCJKjp-Regular-34"/>
       <use xlink:href="#NotoSansCJKjp-Regular-30" transform="translate(55.499985 0)"/>
      </g>
     </g>
    </g>
    <g id="text_12">
     <!-- 只 -->
     <g transform="translate(10.959615 179.413365) rotate(-90) scale(0.1 -0.1)">
      <use xlink:href="#NotoSansCJKjp-Regular-53ea"/>
     </g>
    </g>
   </g>
   <g id="patch_5">
    <path d="M 35.35024 310.94976 
L 35.35024 37.87697 
" style="fill: none; stroke: #000000; stroke-width: 0.8; stroke-linejoin: miter; stroke-linecap: square"/>
   </g>
   <g id="patch_6">
    <path d="M 35.35024 310.94976 
L 353.625 310.94976 
" style="fill: none; stroke: #000000; stroke-width: 0.8; stroke-linejoin: miter; stroke-linecap: square"/>
   </g>
   <g id="text_13">
    <!-- 16 -->
    <g transform="translate(108.565206 201.154956) scale(0.1 -0.1)">
     <defs>
      <path id="NotoSansCJKjp-Regular-36" d="M 1926 -83 
C 2656 -83 3277 531 3277 1440 
C 3277 2426 2765 2912 1971 2912 
C 1606 2912 1197 2701 909 2349 
C 934 3802 1466 4294 2118 4294 
C 2400 4294 2682 4154 2861 3936 
L 3194 4294 
C 2931 4576 2579 4774 2093 4774 
C 1184 4774 358 4077 358 2240 
C 358 691 1030 -83 1926 -83 
z
M 922 1882 
C 1229 2317 1587 2477 1875 2477 
C 2445 2477 2720 2074 2720 1440 
C 2720 800 2374 378 1926 378 
C 1338 378 986 909 922 1882 
z
" transform="scale(0.015625)"/>
     </defs>
     <use xlink:href="#NotoSansCJKjp-Regular-31"/>
     <use xlink:href="#NotoSansCJKjp-Regular-36" transform="translate(55.499985 0)"/>
    </g>
   </g>
   <g id="text_14">
    <!-- 36 -->
    <g transform="translate(269.310034 72.589613) scale(0.1 -0.1)">
     <use xlink:href="#NotoSansCJKjp-Regular-33"/>
     <use xlink:href="#NotoSansCJKjp-Regular-36" transform="translate(55.499985 0)"/>
    </g>
   </g>
   <g id="text_15">
    <!-- 全普通路线所需动物 -->
    <g transform="translate(140.48762 31.87697) scale(0.12 -0.12)">
     <defs>
      <path id="NotoSansCJKjp-Regular-5168" d="M 3174 4909 
C 3750 4102 4877 3155 5862 2579 
C 5952 2720 6067 2880 6182 3002 
C 5184 3501 4064 4442 3392 5389 
L 2906 5389 
C 2413 4550 1344 3533 237 2925 
C 346 2829 480 2656 544 2547 
C 1619 3174 2656 4128 3174 4909 
z
M 486 102 
L 486 -333 
L 5946 -333 
L 5946 102 
L 3430 102 
L 3430 1158 
L 5376 1158 
L 5376 1587 
L 3430 1587 
L 3430 2586 
L 5133 2586 
L 5133 3014 
L 1299 3014 
L 1299 2586 
L 2931 2586 
L 2931 1587 
L 1011 1587 
L 1011 1158 
L 2931 1158 
L 2931 102 
L 486 102 
z
" transform="scale(0.015625)"/>
      <path id="NotoSansCJKjp-Regular-666e" d="M 1011 3955 
C 1235 3654 1440 3238 1517 2957 
L 1939 3123 
C 1856 3405 1638 3814 1402 4109 
L 1011 3955 
z
M 4973 4141 
C 4838 3834 4589 3392 4397 3110 
L 4768 2976 
C 4966 3238 5210 3635 5408 3994 
L 4973 4141 
z
M 4422 5389 
C 4314 5178 4109 4870 3955 4678 
L 4186 4602 
L 2208 4602 
L 2387 4678 
C 2304 4890 2112 5178 1901 5382 
L 1485 5222 
C 1645 5043 1811 4800 1901 4602 
L 691 4602 
L 691 4192 
L 2317 4192 
L 2317 2938 
L 333 2938 
L 333 2534 
L 6080 2534 
L 6080 2938 
L 4038 2938 
L 4038 4192 
L 5766 4192 
L 5766 4602 
L 4435 4602 
C 4576 4774 4742 5005 4890 5235 
L 4422 5389 
z
M 2765 4192 
L 3578 4192 
L 3578 2938 
L 2765 2938 
L 2765 4192 
z
M 1760 749 
L 4653 749 
L 4653 102 
L 1760 102 
L 1760 749 
z
M 1760 1126 
L 1760 1754 
L 4653 1754 
L 4653 1126 
L 1760 1126 
z
M 1274 2138 
L 1274 -506 
L 1760 -506 
L 1760 -282 
L 4653 -282 
L 4653 -480 
L 5152 -480 
L 5152 2138 
L 1274 2138 
z
" transform="scale(0.015625)"/>
      <path id="NotoSansCJKjp-Regular-901a" d="M 371 4934 
C 781 4634 1242 4179 1440 3859 
L 1805 4192 
C 1594 4512 1120 4947 710 5229 
L 371 4934 
z
M 1658 2848 
L 269 2848 
L 269 2400 
L 1197 2400 
L 1197 742 
C 870 474 493 211 186 13 
L 422 -461 
C 787 -179 1126 96 1453 378 
C 1856 -134 2432 -358 3270 -390 
C 3994 -416 5357 -403 6067 -378 
C 6093 -230 6170 -13 6227 96 
C 5453 45 3974 26 3270 58 
C 2522 90 1965 301 1658 781 
L 1658 2848 
z
M 2330 5114 
L 2330 4730 
L 5018 4730 
C 4762 4544 4442 4358 4134 4218 
C 3827 4352 3514 4480 3238 4576 
L 2938 4301 
C 3322 4160 3776 3962 4160 3770 
L 2323 3770 
L 2323 454 
L 2778 454 
L 2778 1517 
L 3859 1517 
L 3859 480 
L 4294 480 
L 4294 1517 
L 5408 1517 
L 5408 934 
C 5408 858 5382 832 5299 826 
C 5222 826 4954 826 4646 832 
C 4704 723 4762 563 4781 442 
C 5210 442 5485 442 5651 512 
C 5818 582 5869 698 5869 934 
L 5869 3770 
L 5056 3770 
C 4922 3846 4749 3936 4563 4026 
C 5037 4262 5523 4589 5869 4902 
L 5568 5133 
L 5472 5114 
L 2330 5114 
z
M 5408 3398 
L 5408 2835 
L 4294 2835 
L 4294 3398 
L 5408 3398 
z
M 2778 2477 
L 3859 2477 
L 3859 1894 
L 2778 1894 
L 2778 2477 
z
M 2778 2835 
L 2778 3398 
L 3859 3398 
L 3859 2835 
L 2778 2835 
z
M 5408 2477 
L 5408 1894 
L 4294 1894 
L 4294 2477 
L 5408 2477 
z
" transform="scale(0.015625)"/>
      <path id="NotoSansCJKjp-Regular-8def" d="M 998 4685 
L 2208 4685 
L 2208 3558 
L 998 3558 
L 998 4685 
z
M 243 269 
L 326 -198 
C 1005 -38 1926 186 2803 410 
L 2758 838 
L 1914 640 
L 1914 1786 
L 2592 1786 
C 2682 1696 2771 1562 2822 1466 
C 2950 1523 3078 1581 3206 1651 
L 3206 -499 
L 3654 -499 
L 3654 -262 
L 5267 -262 
L 5267 -480 
L 5722 -480 
L 5722 1638 
L 5926 1542 
C 5997 1670 6131 1856 6227 1946 
C 5645 2163 5158 2502 4755 2893 
C 5165 3373 5491 3942 5702 4608 
L 5402 4742 
L 5312 4723 
L 4070 4723 
C 4147 4902 4211 5082 4275 5267 
L 3821 5382 
C 3578 4608 3155 3878 2650 3405 
L 2650 5107 
L 570 5107 
L 570 3136 
L 1478 3136 
L 1478 538 
L 979 422 
L 979 2534 
L 570 2534 
L 570 333 
L 243 269 
z
M 3654 160 
L 3654 1395 
L 5267 1395 
L 5267 160 
L 3654 160 
z
M 5101 4301 
C 4934 3904 4710 3546 4448 3226 
C 4179 3539 3968 3872 3814 4192 
L 3872 4301 
L 5101 4301 
z
M 3494 1811 
C 3834 2022 4166 2272 4461 2573 
C 4736 2291 5050 2029 5408 1811 
L 3494 1811 
z
M 4160 2906 
C 3731 2470 3226 2131 2714 1907 
L 2714 2214 
L 1914 2214 
L 1914 3136 
L 2650 3136 
L 2650 3341 
C 2758 3264 2918 3130 2989 3053 
C 3194 3258 3392 3507 3571 3789 
C 3731 3501 3923 3200 4160 2906 
z
" transform="scale(0.015625)"/>
      <path id="NotoSansCJKjp-Regular-7ebf" d="M 346 346 
L 448 -115 
C 1037 64 1805 294 2547 512 
L 2477 922 
C 1690 698 877 474 346 346 
z
M 4506 4992 
C 4826 4838 5229 4589 5434 4410 
L 5715 4710 
C 5510 4883 5101 5120 4787 5261 
L 4506 4992 
z
M 461 2707 
C 550 2752 704 2790 1485 2893 
C 1203 2477 954 2157 832 2029 
C 634 1792 486 1632 346 1606 
C 403 1485 474 1261 499 1165 
C 634 1242 851 1306 2458 1632 
C 2445 1728 2445 1907 2458 2035 
L 1184 1805 
C 1670 2381 2157 3085 2566 3789 
L 2163 4032 
C 2042 3795 1901 3552 1760 3322 
L 947 3238 
C 1331 3782 1702 4474 1978 5146 
L 1530 5357 
C 1274 4589 806 3770 666 3558 
C 525 3341 416 3194 301 3162 
C 358 3034 435 2803 461 2707 
z
M 5677 2234 
C 5421 1830 5075 1459 4659 1139 
C 4557 1478 4467 1888 4403 2349 
L 6035 2656 
L 5958 3078 
L 4346 2778 
C 4314 3046 4282 3328 4262 3622 
L 5856 3866 
L 5779 4288 
L 4237 4058 
C 4218 4486 4211 4928 4211 5389 
L 3738 5389 
C 3744 4909 3757 4442 3782 3987 
L 2771 3840 
L 2848 3405 
L 3808 3552 
C 3827 3258 3859 2970 3891 2694 
L 2643 2464 
L 2720 2029 
L 3949 2259 
C 4026 1728 4128 1248 4262 851 
C 3718 486 3091 198 2438 0 
C 2554 -109 2675 -282 2739 -397 
C 3341 -186 3910 90 4422 422 
C 4685 -154 5030 -493 5485 -493 
C 5926 -493 6074 -282 6163 435 
C 6054 480 5901 582 5805 691 
C 5773 122 5709 -26 5536 -26 
C 5254 -26 5018 237 4819 704 
C 5325 1088 5760 1542 6080 2042 
L 5677 2234 
z
" transform="scale(0.015625)"/>
      <path id="NotoSansCJKjp-Regular-6240" d="M 390 5024 
L 390 4582 
L 3155 4582 
L 3155 5024 
L 390 5024 
z
M 5626 5299 
C 5203 5062 4493 4826 3808 4646 
L 3424 4742 
L 3424 3040 
C 3424 2054 3328 774 2438 -173 
C 2554 -230 2733 -397 2797 -499 
C 3667 435 3866 1728 3891 2733 
L 4998 2733 
L 4998 -512 
L 5472 -512 
L 5472 2733 
L 6182 2733 
L 6182 3194 
L 3898 3194 
L 3898 4230 
C 4646 4410 5466 4653 6048 4941 
L 5626 5299 
z
M 627 3910 
L 627 2189 
C 627 1446 582 467 141 -230 
C 243 -282 435 -435 512 -518 
C 954 154 1069 1133 1082 1914 
L 2989 1914 
L 2989 3910 
L 627 3910 
z
M 1088 3469 
L 2522 3469 
L 2522 2349 
L 1088 2349 
L 1088 3469 
z
" transform="scale(0.015625)"/>
      <path id="NotoSansCJKjp-Regular-9700" d="M 1242 3654 
L 1242 3334 
L 2618 3334 
L 2618 3654 
L 1242 3654 
z
M 1101 2982 
L 1101 2662 
L 2624 2662 
L 2624 2982 
L 1101 2982 
z
M 3744 2982 
L 3744 2656 
L 5312 2656 
L 5312 2982 
L 3744 2982 
z
M 3744 3654 
L 3744 3334 
L 5158 3334 
L 5158 3654 
L 3744 3654 
z
M 486 4358 
L 486 3136 
L 922 3136 
L 922 4006 
L 2950 4006 
L 2950 2490 
L 3411 2490 
L 3411 4006 
L 5472 4006 
L 5472 3136 
L 5920 3136 
L 5920 4358 
L 3411 4358 
L 3411 4736 
L 5536 4736 
L 5536 5120 
L 858 5120 
L 858 4736 
L 2950 4736 
L 2950 4358 
L 486 4358 
z
M 915 1434 
L 915 -499 
L 1370 -499 
L 1370 1037 
L 2317 1037 
L 2317 -461 
L 2758 -461 
L 2758 1037 
L 3738 1037 
L 3738 -461 
L 4179 -461 
L 4179 1037 
L 5178 1037 
L 5178 -26 
C 5178 -90 5165 -109 5088 -109 
C 5024 -115 4806 -115 4544 -109 
C 4602 -224 4672 -390 4698 -512 
C 5043 -512 5286 -512 5446 -435 
C 5606 -371 5645 -256 5645 -32 
L 5645 1434 
L 3226 1434 
L 3398 1888 
L 6003 1888 
L 6003 2278 
L 416 2278 
L 416 1888 
L 2899 1888 
C 2861 1741 2816 1581 2765 1434 
L 915 1434 
z
" transform="scale(0.015625)"/>
      <path id="NotoSansCJKjp-Regular-52a8" d="M 570 4851 
L 570 4422 
L 3046 4422 
L 3046 4851 
L 570 4851 
z
M 4179 5267 
C 4179 4813 4179 4352 4160 3898 
L 3245 3898 
L 3245 3437 
L 4141 3437 
C 4064 1978 3808 640 2931 -160 
C 3059 -230 3226 -390 3309 -506 
C 4250 390 4525 1850 4614 3437 
L 5568 3437 
C 5498 1165 5414 314 5242 122 
C 5178 45 5107 26 4992 26 
C 4858 26 4518 26 4160 64 
C 4243 -77 4294 -275 4307 -410 
C 4646 -435 4998 -435 5197 -416 
C 5402 -397 5530 -339 5658 -173 
C 5882 109 5958 1018 6048 3654 
C 6048 3725 6048 3898 6048 3898 
L 4634 3898 
C 4646 4352 4653 4813 4653 5267 
L 4179 5267 
z
M 570 282 
L 576 288 
L 576 275 
C 723 365 954 435 2733 838 
L 2854 410 
L 3277 550 
C 3155 998 2867 1760 2624 2336 
L 2227 2227 
C 2355 1926 2483 1574 2598 1242 
L 1075 922 
C 1325 1498 1568 2214 1728 2886 
L 3162 2886 
L 3162 3328 
L 346 3328 
L 346 2886 
L 1235 2886 
C 1069 2138 800 1382 710 1171 
C 602 928 518 755 416 723 
C 474 608 544 378 570 282 
z
" transform="scale(0.015625)"/>
      <path id="NotoSansCJKjp-Regular-7269" d="M 3418 5376 
C 3206 4403 2822 3488 2285 2906 
C 2394 2842 2579 2707 2656 2630 
C 2938 2957 3181 3379 3392 3853 
L 3942 3853 
C 3648 2822 3078 1747 2400 1210 
C 2528 1139 2682 1024 2778 928 
C 3482 1542 4064 2746 4358 3853 
L 4883 3853 
C 4550 2234 3859 640 2803 -115 
C 2938 -179 3110 -307 3206 -403 
C 4269 442 4979 2163 5306 3853 
L 5606 3853 
C 5478 1299 5338 346 5133 115 
C 5062 32 4998 13 4890 13 
C 4768 13 4512 19 4224 45 
C 4301 -90 4346 -294 4358 -435 
C 4640 -454 4915 -454 5088 -435 
C 5280 -410 5408 -358 5536 -179 
C 5792 134 5933 1139 6074 4058 
C 6080 4122 6086 4301 6086 4301 
L 3571 4301 
C 3680 4614 3782 4954 3859 5293 
L 3418 5376 
z
M 627 5005 
C 550 4218 422 3405 186 2867 
C 288 2822 474 2707 550 2650 
C 659 2912 755 3245 832 3603 
L 1421 3603 
L 1421 2157 
C 973 2029 550 1907 224 1824 
L 352 1363 
L 1421 1696 
L 1421 -512 
L 1869 -512 
L 1869 1837 
L 2675 2093 
L 2611 2515 
L 1869 2291 
L 1869 3603 
L 2528 3603 
L 2528 4064 
L 1869 4064 
L 1869 5370 
L 1421 5370 
L 1421 4064 
L 922 4064 
C 966 4352 1011 4646 1043 4941 
L 627 5005 
z
" transform="scale(0.015625)"/>
     </defs>
     <use xlink:href="#NotoSansCJKjp-Regular-5168"/>
     <use xlink:href="#NotoSansCJKjp-Regular-666e" transform="translate(99.999985 0)"/>
     <use xlink:href="#NotoSansCJKjp-Regular-901a" transform="translate(199.999969 0)"/>
     <use xlink:href="#NotoSansCJKjp-Regular-8def" transform="translate(299.999954 0)"/>
     <use xlink:href="#NotoSansCJKjp-Regular-7ebf" transform="translate(399.999939 0)"/>
     <use xlink:href="#NotoSansCJKjp-Regular-6240" transform="translate(499.999924 0)"/>
     <use xlink:href="#NotoSansCJKjp-Regular-9700" transform="translate(599.999908 0)"/>
     <use xlink:href="#NotoSansCJKjp-Regular-52a8" transform="translate(699.999893 0)"/>
     <use xlink:href="#NotoSansCJKjp-Regular-7269" transform="translate(799.999878 0)"/>
    </g>
   </g>
  </g>
  <g id="axes_2">
   <g id="patch_7">
    <path d="M 398.725 310.94976 
L 716.99976 310.94976 
L 716.99976 37.87697 
L 398.725 37.87697 
z
" style="fill: #ffffff"/>
   </g>
   <g id="patch_8">
    <path d="M 413.192035 310.94976 
L 541.787897 310.94976 
L 541.787897 135.822913 
L 413.192035 135.822913 
z
" clip-path="url(#pdb08805c15)" style="fill: #b7c4a6"/>
   </g>
   <g id="patch_9">
    <path d="M 573.936863 310.94976 
L 702.532725 310.94976 
L 702.532725 79.532141 
L 573.936863 79.532141 
z
" clip-path="url(#pdb08805c15)" style="fill: #679380"/>
   </g>
   <g id="matplotlib.axis_3">
    <g id="xtick_3">
     <g id="line2d_12">
      <g>
       <use xlink:href="#md5a5689bf9" x="477.489966" y="310.94976" style="stroke: #000000; stroke-width: 0.8"/>
      </g>
     </g>
     <g id="text_16">
      <!-- 每阶2只 -->
      <g transform="translate(459.714966 325.909135) scale(0.1 -0.1)">
       <use xlink:href="#NotoSansCJKjp-Regular-6bcf"/>
       <use xlink:href="#NotoSansCJKjp-Regular-9636" transform="translate(99.999985 0)"/>
       <use xlink:href="#NotoSansCJKjp-Regular-32" transform="translate(199.999969 0)"/>
       <use xlink:href="#NotoSansCJKjp-Regular-53ea" transform="translate(255.499954 0)"/>
      </g>
     </g>
    </g>
    <g id="xtick_4">
     <g id="line2d_13">
      <g>
       <use xlink:href="#md5a5689bf9" x="638.234794" y="310.94976" style="stroke: #000000; stroke-width: 0.8"/>
      </g>
     </g>
     <g id="text_17">
      <!-- 高阶3只 -->
      <g transform="translate(620.459794 325.909135) scale(0.1 -0.1)">
       <use xlink:href="#NotoSansCJKjp-Regular-9ad8"/>
       <use xlink:href="#NotoSansCJKjp-Regular-9636" transform="translate(99.999985 0)"/>
       <use xlink:href="#NotoSansCJKjp-Regular-33" transform="translate(199.999969 0)"/>
       <use xlink:href="#NotoSansCJKjp-Regular-53ea" transform="translate(255.499954 0)"/>
      </g>
     </g>
    </g>
   </g>
   <g id="matplotlib.axis_4">
    <g id="ytick_10">
     <g id="line2d_14">
      <g>
       <use xlink:href="#m435fed6c21" x="398.725" y="310.94976" style="stroke: #000000; stroke-width: 0.8"/>
      </g>
     </g>
     <g id="text_18">
      <!-- 0 -->
      <g transform="translate(386.175 314.929447) scale(0.1 -0.1)">
       <use xlink:href="#NotoSansCJKjp-Regular-30"/>
      </g>
     </g>
    </g>
    <g id="ytick_11">
     <g id="line2d_15">
      <g>
       <use xlink:href="#m435fed6c21" x="398.725" y="269.252892" style="stroke: #000000; stroke-width: 0.8"/>
      </g>
     </g>
     <g id="text_19">
      <!-- 20 -->
      <g transform="translate(380.625 273.232579) scale(0.1 -0.1)">
       <use xlink:href="#NotoSansCJKjp-Regular-32"/>
       <use xlink:href="#NotoSansCJKjp-Regular-30" transform="translate(55.499985 0)"/>
      </g>
     </g>
    </g>
    <g id="ytick_12">
     <g id="line2d_16">
      <g>
       <use xlink:href="#m435fed6c21" x="398.725" y="227.556024" style="stroke: #000000; stroke-width: 0.8"/>
      </g>
     </g>
     <g id="text_20">
      <!-- 40 -->
      <g transform="translate(380.625 231.535711) scale(0.1 -0.1)">
       <use xlink:href="#NotoSansCJKjp-Regular-34"/>
       <use xlink:href="#NotoSansCJKjp-Regular-30" transform="translate(55.499985 0)"/>
      </g>
     </g>
    </g>
    <g id="ytick_13">
     <g id="line2d_17">
      <g>
       <use xlink:href="#m435fed6c21" x="398.725" y="185.859155" style="stroke: #000000; stroke-width: 0.8"/>
      </g>
     </g>
     <g id="text_21">
      <!-- 60 -->
      <g transform="translate(380.625 189.838843) scale(0.1 -0.1)">
       <use xlink:href="#NotoSansCJKjp-Regular-36"/>
       <use xlink:href="#NotoSansCJKjp-Regular-30" transform="translate(55.499985 0)"/>
      </g>
     </g>
    </g>
    <g id="ytick_14">
     <g id="line2d_18">
      <g>
       <use xlink:href="#m435fed6c21" x="398.725" y="144.162287" style="stroke: #000000; stroke-width: 0.8"/>
      </g>
     </g>
     <g id="text_22">
      <!-- 80 -->
      <g transform="translate(380.625 148.141975) scale(0.1 -0.1)">
       <defs>
        <path id="NotoSansCJKjp-Regular-38" d="M 1792 -83 
C 2669 -83 3258 448 3258 1126 
C 3258 1773 2880 2125 2470 2362 
L 2470 2394 
C 2746 2611 3091 3034 3091 3526 
C 3091 4250 2605 4762 1805 4762 
C 1075 4762 518 4282 518 3571 
C 518 3078 813 2726 1152 2490 
L 1152 2464 
C 723 2234 294 1792 294 1165 
C 294 442 922 -83 1792 -83 
z
M 2112 2547 
C 1555 2765 1050 3014 1050 3571 
C 1050 4026 1363 4326 1798 4326 
C 2298 4326 2592 3962 2592 3494 
C 2592 3149 2426 2829 2112 2547 
z
M 1798 352 
C 1235 352 813 717 813 1216 
C 813 1664 1082 2035 1459 2278 
C 2125 2010 2701 1779 2701 1146 
C 2701 678 2342 352 1798 352 
z
" transform="scale(0.015625)"/>
       </defs>
       <use xlink:href="#NotoSansCJKjp-Regular-38"/>
       <use xlink:href="#NotoSansCJKjp-Regular-30" transform="translate(55.499985 0)"/>
      </g>
     </g>
    </g>
    <g id="ytick_15">
     <g id="line2d_19">
      <g>
       <use xlink:href="#m435fed6c21" x="398.725" y="102.465419" style="stroke: #000000; stroke-width: 0.8"/>
      </g>
     </g>
     <g id="text_23">
      <!-- 100 -->
      <g transform="translate(375.075 106.445106) scale(0.1 -0.1)">
       <use xlink:href="#NotoSansCJKjp-Regular-31"/>
       <use xlink:href="#NotoSansCJKjp-Regular-30" transform="translate(55.499985 0)"/>
       <use xlink:href="#NotoSansCJKjp-Regular-30" transform="translate(110.999969 0)"/>
      </g>
     </g>
    </g>
    <g id="ytick_16">
     <g id="line2d_20">
      <g>
       <use xlink:href="#m435fed6c21" x="398.725" y="60.768551" style="stroke: #000000; stroke-width: 0.8"/>
      </g>
     </g>
     <g id="text_24">
      <!-- 120 -->
      <g transform="translate(375.075 64.748238) scale(0.1 -0.1)">
       <use xlink:href="#NotoSansCJKjp-Regular-31"/>
       <use xlink:href="#NotoSansCJKjp-Regular-32" transform="translate(55.499985 0)"/>
       <use xlink:href="#NotoSansCJKjp-Regular-30" transform="translate(110.999969 0)"/>
      </g>
     </g>
    </g>
    <g id="text_25">
     <!-- 枚 -->
     <g transform="translate(368.784375 179.413365) rotate(-90) scale(0.1 -0.1)">
      <defs>
       <path id="NotoSansCJKjp-Regular-679a" d="M 5126 3686 
C 4979 2880 4742 2138 4346 1504 
C 3949 2150 3712 2886 3565 3597 
L 3603 3686 
L 5126 3686 
z
M 3635 5382 
C 3411 4339 3014 3379 2419 2771 
C 2522 2669 2688 2451 2752 2342 
C 2938 2547 3110 2778 3270 3040 
C 3430 2374 3674 1696 4051 1088 
C 3642 582 3098 166 2368 -134 
C 2464 -230 2605 -416 2669 -525 
C 3373 -224 3917 186 4339 678 
C 4723 186 5222 -237 5862 -538 
C 5933 -397 6099 -192 6202 -90 
C 5542 179 5037 589 4646 1075 
C 5158 1818 5453 2707 5645 3686 
L 6086 3686 
L 6086 4141 
L 3789 4141 
C 3930 4506 4038 4890 4134 5286 
L 3635 5382 
z
M 1325 5376 
L 1325 4006 
L 333 4006 
L 333 3546 
L 1261 3546 
C 1050 2618 614 1555 173 986 
C 256 870 371 685 429 550 
C 762 1005 1082 1747 1325 2515 
L 1325 -506 
L 1792 -506 
L 1792 2362 
C 2067 1971 2413 1453 2554 1190 
L 2848 1581 
C 2701 1792 2054 2630 1792 2925 
L 1792 3546 
L 2662 3546 
L 2662 4006 
L 1792 4006 
L 1792 5376 
L 1325 5376 
z
" transform="scale(0.015625)"/>
      </defs>
      <use xlink:href="#NotoSansCJKjp-Regular-679a"/>
     </g>
    </g>
   </g>
   <g id="patch_10">
    <path d="M 398.725 310.94976 
L 398.725 37.87697 
" style="fill: none; stroke: #000000; stroke-width: 0.8; stroke-linejoin: miter; stroke-linecap: square"/>
   </g>
   <g id="patch_11">
    <path d="M 398.725 310.94976 
L 716.99976 310.94976 
" style="fill: none; stroke: #000000; stroke-width: 0.8; stroke-linejoin: miter; stroke-linecap: square"/>
   </g>
   <g id="text_26">
    <!-- 84 -->
    <g transform="translate(471.939966 128.880385) scale(0.1 -0.1)">
     <use xlink:href="#NotoSansCJKjp-Regular-38"/>
     <use xlink:href="#NotoSansCJKjp-Regular-34" transform="translate(55.499985 0)"/>
    </g>
   </g>
   <g id="text_27">
    <!-- 111 -->
    <g transform="translate(629.909794 72.589613) scale(0.1 -0.1)">
     <use xlink:href="#NotoSansCJKjp-Regular-31"/>
     <use xlink:href="#NotoSansCJKjp-Regular-31" transform="translate(55.499985 0)"/>
     <use xlink:href="#NotoSansCJKjp-Regular-31" transform="translate(110.999969 0)"/>
    </g>
   </g>
   <g id="text_28">
    <!-- 指定继承路线所需晶露 -->
    <g transform="translate(497.86238 31.87697) scale(0.12 -0.12)">
     <defs>
      <path id="NotoSansCJKjp-Regular-6307" d="M 5357 4998 
C 4870 4781 4058 4557 3296 4397 
L 3296 5350 
L 2822 5350 
L 2822 3533 
C 2822 2976 3021 2835 3763 2835 
C 3917 2835 5094 2835 5254 2835 
C 5888 2835 6048 3046 6118 3904 
C 5984 3930 5779 4006 5677 4077 
C 5638 3386 5581 3270 5229 3270 
C 4973 3270 3981 3270 3789 3270 
C 3373 3270 3296 3315 3296 3533 
L 3296 4000 
C 4128 4160 5075 4378 5722 4640 
L 5357 4998 
z
M 3277 858 
L 5363 858 
L 5363 186 
L 3277 186 
L 3277 858 
z
M 3277 1248 
L 3277 1888 
L 5363 1888 
L 5363 1248 
L 3277 1248 
z
M 2822 2298 
L 2822 -506 
L 3277 -506 
L 3277 -211 
L 5363 -211 
L 5363 -480 
L 5837 -480 
L 5837 2298 
L 2822 2298 
z
M 1178 5376 
L 1178 4083 
L 282 4083 
L 282 3629 
L 1178 3629 
L 1178 2253 
L 198 1984 
L 339 1517 
L 1178 1766 
L 1178 51 
C 1178 -38 1139 -64 1056 -70 
C 973 -70 710 -70 416 -64 
C 474 -192 544 -390 563 -506 
C 992 -512 1248 -493 1421 -422 
C 1587 -346 1645 -218 1645 58 
L 1645 1907 
L 2496 2170 
L 2438 2618 
L 1645 2387 
L 1645 3629 
L 2406 3629 
L 2406 4083 
L 1645 4083 
L 1645 5376 
L 1178 5376 
z
" transform="scale(0.015625)"/>
      <path id="NotoSansCJKjp-Regular-5b9a" d="M 1421 2413 
C 1286 1248 934 333 224 -218 
C 339 -294 538 -461 621 -544 
C 1037 -179 1350 307 1574 896 
C 2163 -198 3117 -422 4454 -422 
L 5952 -422 
C 5971 -282 6061 -51 6131 64 
C 5818 58 4717 58 4480 58 
C 4109 58 3757 77 3443 134 
L 3443 1440 
L 5350 1440 
L 5350 1888 
L 3443 1888 
L 3443 2957 
L 5088 2957 
L 5088 3418 
L 1350 3418 
L 1350 2957 
L 2944 2957 
L 2944 269 
C 2419 461 2016 832 1760 1504 
C 1824 1766 1882 2054 1920 2355 
L 1421 2413 
z
M 525 4640 
L 525 3245 
L 998 3245 
L 998 4186 
L 5382 4186 
L 5382 3245 
L 5875 3245 
L 5875 4640 
L 3443 4640 
L 3443 5376 
L 2938 5376 
L 2938 4640 
L 525 4640 
z
" transform="scale(0.015625)"/>
      <path id="NotoSansCJKjp-Regular-7ee7" d="M 269 365 
L 358 -83 
C 934 58 1709 250 2445 435 
L 2406 838 
C 1606 653 800 467 269 365 
z
M 5549 4928 
C 5446 4563 5242 4038 5082 3712 
L 5382 3603 
C 5555 3917 5766 4403 5939 4813 
L 5549 4928 
z
M 3392 4832 
C 3539 4442 3712 3936 3782 3603 
L 4128 3712 
C 4051 4032 3872 4531 3718 4922 
L 3392 4832 
z
M 2656 5120 
L 2656 -173 
L 6099 -173 
L 6099 256 
L 3098 256 
L 3098 5120 
L 2656 5120 
z
M 384 2707 
C 480 2752 627 2790 1408 2893 
C 1126 2477 870 2144 755 2016 
C 563 1786 416 1619 282 1594 
C 326 1478 403 1261 429 1165 
C 557 1242 774 1306 2368 1626 
C 2362 1722 2355 1907 2368 2029 
L 1088 1798 
C 1581 2374 2054 3078 2458 3789 
L 2067 4019 
C 1952 3782 1811 3539 1677 3315 
L 858 3226 
C 1222 3782 1581 4499 1843 5178 
L 1389 5382 
C 1158 4608 723 3770 576 3558 
C 448 3334 339 3187 230 3155 
C 288 3034 358 2803 384 2707 
z
M 4442 5325 
L 4442 3334 
L 3277 3334 
L 3277 2918 
L 4307 2918 
C 4051 2336 3654 1722 3283 1376 
C 3354 1267 3456 1094 3494 979 
C 3840 1312 4186 1875 4442 2451 
L 4442 499 
L 4851 499 
L 4851 2451 
C 5158 2042 5568 1466 5722 1184 
L 6022 1517 
C 5856 1741 5152 2611 4870 2918 
L 6048 2918 
L 6048 3334 
L 4851 3334 
L 4851 5325 
L 4442 5325 
z
" transform="scale(0.015625)"/>
      <path id="NotoSansCJKjp-Regular-627f" d="M 1638 1126 
L 1638 717 
L 2925 717 
L 2925 70 
C 2925 -38 2893 -70 2771 -77 
C 2650 -77 2234 -83 1786 -70 
C 1862 -198 1939 -397 1971 -531 
C 2528 -531 2893 -518 3117 -448 
C 3328 -371 3405 -237 3405 70 
L 3405 717 
L 4762 717 
L 4762 1126 
L 3405 1126 
L 3405 1773 
L 4397 1773 
L 4397 2176 
L 3405 2176 
L 3405 2797 
L 4288 2797 
L 4288 3187 
L 3405 3187 
L 3405 3571 
C 4064 3872 4768 4333 5235 4806 
L 4902 5043 
L 4800 5018 
L 1165 5018 
L 1165 4576 
L 4294 4576 
C 4006 4352 3642 4122 3277 3949 
L 2925 3949 
L 2925 3187 
L 2131 3187 
L 2131 2797 
L 2925 2797 
L 2925 2176 
L 1997 2176 
L 1997 1773 
L 2925 1773 
L 2925 1126 
L 1638 1126 
z
M 378 3635 
L 378 3194 
L 1581 3194 
C 1344 1946 832 941 173 378 
C 288 307 461 134 544 26 
C 1280 691 1869 1926 2118 3539 
L 1818 3654 
L 1728 3635 
L 378 3635 
z
M 4710 3840 
L 4275 3763 
C 4525 2144 4986 762 5862 26 
C 5939 160 6106 339 6227 429 
C 5702 819 5325 1485 5062 2285 
C 5402 2592 5798 3014 6112 3379 
L 5728 3686 
C 5530 3398 5222 3027 4934 2733 
C 4838 3085 4768 3456 4710 3840 
z
" transform="scale(0.015625)"/>
      <path id="NotoSansCJKjp-Regular-6676" d="M 1920 3763 
L 4474 3763 
L 4474 3162 
L 1920 3162 
L 1920 3763 
z
M 1920 4736 
L 4474 4736 
L 4474 4147 
L 1920 4147 
L 1920 4736 
z
M 1453 5146 
L 1453 2752 
L 4954 2752 
L 4954 5146 
L 1453 5146 
z
M 1043 864 
L 2451 864 
L 2451 134 
L 1043 134 
L 1043 864 
z
M 1043 1242 
L 1043 1894 
L 2451 1894 
L 2451 1242 
L 1043 1242 
z
M 589 2317 
L 589 -512 
L 1043 -512 
L 1043 -282 
L 2451 -282 
L 2451 -474 
L 2925 -474 
L 2925 2317 
L 589 2317 
z
M 3942 864 
L 5370 864 
L 5370 134 
L 3942 134 
L 3942 864 
z
M 3942 1242 
L 3942 1894 
L 5370 1894 
L 5370 1242 
L 3942 1242 
z
M 3488 2317 
L 3488 -512 
L 3942 -512 
L 3942 -282 
L 5370 -282 
L 5370 -474 
L 5856 -474 
L 5856 2317 
L 3488 2317 
z
" transform="scale(0.015625)"/>
      <path id="NotoSansCJKjp-Regular-9732" d="M 1280 3834 
L 1280 3552 
L 2586 3552 
L 2586 3834 
L 1280 3834 
z
M 1165 3270 
L 1165 2989 
L 2579 2989 
L 2579 3270 
L 1165 3270 
z
M 3782 3270 
L 3782 2989 
L 5216 2989 
L 5216 3270 
L 3782 3270 
z
M 3782 3834 
L 3782 3552 
L 5107 3552 
L 5107 3834 
L 3782 3834 
z
M 1152 2362 
L 2374 2362 
L 2374 1792 
L 1152 1792 
L 1152 2362 
z
M 493 4429 
L 493 3347 
L 934 3347 
L 934 4096 
L 2944 4096 
L 2944 2880 
L 3418 2880 
L 3418 4096 
L 5453 4096 
L 5453 3347 
L 5901 3347 
L 5901 4429 
L 3418 4429 
L 3418 4762 
L 5536 4762 
L 5536 5120 
L 870 5120 
L 870 4762 
L 2944 4762 
L 2944 4429 
L 493 4429 
z
M 710 1248 
L 710 -45 
L 346 -77 
L 390 -467 
C 1082 -397 2054 -294 2995 -192 
L 2989 179 
L 1990 77 
L 1990 691 
L 2829 691 
L 2829 998 
C 2899 922 2982 794 3014 717 
C 3149 749 3283 794 3418 838 
L 3418 -512 
L 3834 -512 
L 3834 -352 
L 5126 -352 
L 5126 -499 
L 5555 -499 
L 5555 858 
C 5690 819 5824 787 5958 762 
C 6016 864 6131 1024 6221 1107 
C 5722 1190 5242 1338 4832 1542 
C 5190 1805 5498 2125 5696 2496 
L 5434 2643 
L 5363 2618 
L 4198 2618 
C 4262 2707 4320 2790 4378 2880 
L 3981 2944 
C 3770 2586 3373 2189 2822 1888 
C 2912 1837 3034 1728 3098 1638 
C 3296 1760 3475 1888 3635 2022 
C 3782 1850 3962 1683 4154 1542 
C 3731 1312 3251 1139 2797 1037 
L 1990 1037 
L 1990 1459 
L 2790 1459 
L 2790 2694 
L 755 2694 
L 755 1459 
L 1581 1459 
L 1581 38 
L 1082 -13 
L 1082 1248 
L 710 1248 
z
M 3834 -26 
L 3834 595 
L 5126 595 
L 5126 -26 
L 3834 -26 
z
M 5402 909 
L 3622 909 
C 3923 1018 4218 1158 4486 1318 
C 4768 1152 5075 1011 5402 909 
z
M 3885 2253 
L 3923 2298 
L 5114 2298 
C 4947 2093 4730 1901 4486 1734 
C 4243 1888 4038 2061 3885 2253 
z
" transform="scale(0.015625)"/>
     </defs>
     <use xlink:href="#NotoSansCJKjp-Regular-6307"/>
     <use xlink:href="#NotoSansCJKjp-Regular-5b9a" transform="translate(99.999985 0)"/>
     <use xlink:href="#NotoSansCJKjp-Regular-7ee7" transform="translate(199.999969 0)"/>
     <use xlink:href="#NotoSansCJKjp-Regular-627f" transform="translate(299.999954 0)"/>
     <use xlink:href="#NotoSansCJKjp-Regular-8def" transform="translate(399.999939 0)"/>
     <use xlink:href="#NotoSansCJKjp-Regular-7ebf" transform="translate(499.999924 0)"/>
     <use xlink:href="#NotoSansCJKjp-Regular-6240" transform="translate(599.999908 0)"/>
     <use xlink:href="#NotoSansCJKjp-Regular-9700" transform="translate(699.999893 0)"/>
     <use xlink:href="#NotoSansCJKjp-Regular-6676" transform="translate(799.999878 0)"/>
     <use xlink:href="#NotoSansCJKjp-Regular-9732" transform="translate(899.999863 0)"/>
    </g>
   </g>
  </g>
  <g id="text_29">
   <!-- 合成方案对照：优秀、史诗2只；传奇、无双3只 -->
   <g transform="translate(222.785 13.347427) scale(0.13 -0.13)">
    <defs>
     <path id="NotoSansCJKjp-Regular-5408" d="M 1587 3283 
L 1587 2854 
L 4819 2854 
L 4819 3283 
L 1587 3283 
z
M 3187 4890 
C 3789 4070 4915 3168 5914 2637 
C 5997 2778 6118 2944 6234 3066 
C 5216 3520 4090 4410 3405 5363 
L 2912 5363 
C 2413 4531 1338 3552 218 2982 
C 320 2880 454 2714 518 2605 
C 1613 3194 2656 4109 3187 4890 
z
M 1254 2048 
L 1254 -518 
L 1728 -518 
L 1728 -250 
L 4685 -250 
L 4685 -518 
L 5171 -518 
L 5171 2048 
L 1254 2048 
z
M 1728 179 
L 1728 1613 
L 4685 1613 
L 4685 179 
L 1728 179 
z
" transform="scale(0.015625)"/>
     <path id="NotoSansCJKjp-Regular-6210" d="M 3482 5370 
C 3482 5005 3494 4640 3514 4288 
L 819 4288 
L 819 2490 
C 819 1658 762 550 230 -237 
C 346 -294 550 -461 634 -557 
C 1222 288 1318 1581 1318 2483 
L 1318 2528 
L 2490 2528 
C 2464 1427 2432 1018 2349 922 
C 2298 864 2240 851 2144 851 
C 2035 851 1760 851 1466 883 
C 1542 762 1594 570 1600 435 
C 1914 416 2208 416 2374 429 
C 2547 448 2656 493 2758 614 
C 2893 787 2925 1331 2957 2771 
C 2957 2835 2963 2976 2963 2976 
L 1318 2976 
L 1318 3821 
L 3546 3821 
C 3622 2784 3776 1837 4019 1101 
C 3597 614 3104 218 2534 -83 
C 2637 -179 2810 -378 2886 -480 
C 3379 -186 3821 166 4211 589 
C 4506 -70 4890 -467 5382 -467 
C 5875 -467 6054 -147 6138 947 
C 6010 992 5830 1101 5722 1210 
C 5683 358 5606 26 5421 26 
C 5094 26 4806 390 4570 1018 
C 5043 1632 5421 2362 5696 3200 
L 5216 3322 
C 5011 2675 4736 2093 4390 1581 
C 4224 2202 4102 2963 4032 3821 
L 6086 3821 
L 6086 4288 
L 4006 4288 
C 3987 4640 3981 4998 3981 5370 
L 3482 5370 
z
M 4294 5056 
C 4704 4845 5197 4518 5440 4288 
L 5741 4621 
C 5491 4838 4986 5152 4582 5350 
L 4294 5056 
z
" transform="scale(0.015625)"/>
     <path id="NotoSansCJKjp-Regular-65b9" d="M 2931 5395 
L 2931 4269 
L 339 4269 
L 339 3808 
L 2310 3808 
C 2240 2330 2054 666 269 -147 
C 397 -243 544 -416 621 -538 
C 1926 90 2438 1152 2669 2298 
L 4787 2298 
C 4685 819 4557 186 4371 19 
C 4294 -51 4211 -58 4064 -58 
C 3898 -58 3443 -51 2982 -13 
C 3078 -147 3142 -346 3155 -480 
C 3584 -506 4013 -512 4230 -499 
C 4480 -486 4634 -435 4781 -282 
C 5030 -26 5165 685 5293 2522 
C 5306 2598 5312 2758 5312 2758 
L 2746 2758 
C 2790 3110 2822 3462 2842 3808 
L 6067 3808 
L 6067 4269 
L 3424 4269 
L 3424 5395 
L 2931 5395 
z
" transform="scale(0.015625)"/>
     <path id="NotoSansCJKjp-Regular-6848" d="M 512 4896 
L 512 3974 
L 966 3974 
L 966 4486 
L 5453 4486 
L 5453 3974 
L 5920 3974 
L 5920 4896 
L 3430 4896 
L 3430 5376 
L 2950 5376 
L 2950 4896 
L 512 4896 
z
M 333 1472 
L 333 1062 
L 2566 1062 
C 1997 570 1069 154 218 -32 
C 314 -128 454 -307 518 -422 
C 1395 -192 2342 307 2944 902 
L 2944 -506 
L 3424 -506 
L 3424 934 
C 4038 320 5018 -192 5914 -435 
C 5978 -314 6118 -128 6221 -32 
C 5357 154 4416 570 3834 1062 
L 6074 1062 
L 6074 1472 
L 3424 1472 
L 3424 2003 
L 2944 2003 
L 2944 1472 
L 333 1472 
z
M 2618 4416 
L 2176 3814 
L 442 3814 
L 442 3424 
L 1875 3424 
C 1664 3155 1453 2899 1274 2701 
L 1722 2560 
L 1850 2714 
C 2182 2643 2541 2560 2893 2470 
C 2355 2310 1619 2202 614 2144 
C 672 2042 749 1869 768 1754 
C 2042 1850 2931 2016 3558 2298 
C 4275 2106 4941 1894 5389 1715 
L 5677 2067 
C 5254 2227 4672 2406 4045 2573 
C 4365 2803 4589 3078 4749 3424 
L 5990 3424 
L 5990 3814 
L 2726 3814 
L 3072 4275 
L 2618 4416 
z
M 2426 3424 
L 4230 3424 
C 4077 3136 3846 2899 3494 2714 
C 3021 2829 2534 2931 2099 3014 
L 2426 3424 
z
" transform="scale(0.015625)"/>
     <path id="NotoSansCJKjp-Regular-5bf9" d="M 3213 2522 
C 3514 2067 3802 1459 3904 1075 
L 4326 1286 
C 4224 1670 3917 2259 3603 2701 
L 3213 2522 
z
M 582 2899 
C 973 2547 1389 2131 1760 1709 
C 1376 890 870 269 288 -109 
C 403 -205 550 -384 627 -499 
C 1216 -77 1715 512 2106 1299 
C 2394 941 2630 602 2784 314 
L 3168 666 
C 2982 998 2682 1395 2330 1798 
C 2624 2534 2835 3411 2944 4448 
L 2630 4538 
L 2547 4518 
L 448 4518 
L 448 4064 
L 2419 4064 
C 2323 3373 2170 2752 1965 2202 
C 1626 2554 1267 2899 922 3200 
L 582 2899 
z
M 4896 5376 
L 4896 3834 
L 3085 3834 
L 3085 3373 
L 4896 3373 
L 4896 141 
C 4896 26 4851 -6 4742 -13 
C 4634 -13 4275 -19 3872 0 
C 3936 -147 4006 -371 4032 -506 
C 4576 -506 4902 -493 5094 -410 
C 5293 -326 5370 -179 5370 141 
L 5370 3373 
L 6138 3373 
L 6138 3834 
L 5370 3834 
L 5370 5376 
L 4896 5376 
z
" transform="scale(0.015625)"/>
     <path id="NotoSansCJKjp-Regular-7167" d="M 3379 2605 
L 5254 2605 
L 5254 1632 
L 3379 1632 
L 3379 2605 
z
M 2931 3008 
L 2931 1229 
L 5728 1229 
L 5728 3008 
L 2931 3008 
z
M 2176 800 
C 2253 378 2304 -160 2310 -486 
L 2778 -416 
C 2771 -96 2701 435 2618 845 
L 2176 800 
z
M 3546 819 
C 3712 403 3872 -147 3936 -474 
L 4410 -371 
C 4346 -32 4166 499 3994 902 
L 3546 819 
z
M 4851 851 
C 5158 429 5510 -160 5664 -525 
L 6118 -320 
C 5958 45 5594 614 5286 1030 
L 4851 851 
z
M 1114 986 
C 902 512 563 -19 275 -339 
L 736 -544 
C 1030 -179 1350 378 1574 851 
L 1114 986 
z
M 1050 4672 
L 2010 4672 
L 2010 3546 
L 1050 3546 
L 1050 4672 
z
M 1050 1869 
L 1050 3123 
L 2010 3123 
L 2010 1869 
L 1050 1869 
z
M 595 5101 
L 595 1107 
L 1050 1107 
L 1050 1434 
L 2458 1434 
L 2458 5101 
L 595 5101 
z
M 2739 5114 
L 2739 4685 
L 3808 4685 
C 3680 4090 3379 3680 2534 3450 
C 2630 3373 2752 3200 2803 3091 
C 3776 3392 4141 3910 4282 4685 
L 5427 4685 
C 5382 4077 5338 3827 5254 3744 
C 5210 3699 5152 3693 5062 3693 
C 4960 3693 4698 3693 4416 3718 
C 4486 3610 4531 3443 4538 3322 
C 4832 3302 5120 3309 5267 3315 
C 5434 3328 5542 3366 5645 3469 
C 5779 3616 5843 3994 5901 4928 
C 5907 4992 5914 5114 5914 5114 
L 2739 5114 
z
" transform="scale(0.015625)"/>
     <path id="NotoSansCJKjp-Regular-ff1a" d="M 3200 3482 
C 3456 3482 3686 3667 3686 3962 
C 3686 4256 3456 4442 3200 4442 
C 2944 4442 2714 4256 2714 3962 
C 2714 3667 2944 3482 3200 3482 
z
M 3200 346 
C 3456 346 3686 538 3686 826 
C 3686 1120 3456 1312 3200 1312 
C 2944 1312 2714 1120 2714 826 
C 2714 538 2944 346 3200 346 
z
" transform="scale(0.015625)"/>
     <path id="NotoSansCJKjp-Regular-4f18" d="M 4083 2899 
L 4083 339 
C 4083 -186 4211 -339 4717 -339 
C 4826 -339 5357 -339 5466 -339 
C 5933 -339 6054 -70 6099 896 
C 5971 928 5773 1011 5670 1094 
C 5651 250 5619 102 5427 102 
C 5306 102 4870 102 4774 102 
C 4582 102 4550 147 4550 339 
L 4550 2899 
L 4083 2899 
z
M 4474 4979 
C 4787 4678 5165 4256 5338 3994 
L 5690 4262 
C 5504 4525 5120 4928 4806 5210 
L 4474 4979 
z
M 3334 5299 
C 3334 4819 3328 4333 3309 3859 
L 1862 3859 
L 1862 3398 
L 3283 3398 
C 3181 1952 2854 634 1760 -134 
C 1882 -218 2035 -371 2112 -486 
C 3290 365 3648 1818 3763 3398 
L 6080 3398 
L 6080 3859 
L 3789 3859 
C 3808 4339 3814 4819 3814 5299 
L 3334 5299 
z
M 1734 5363 
C 1395 4390 832 3430 237 2810 
C 326 2694 467 2445 512 2330 
C 698 2534 883 2765 1056 3014 
L 1056 -512 
L 1517 -512 
L 1517 3757 
C 1779 4224 2003 4723 2189 5222 
L 1734 5363 
z
" transform="scale(0.015625)"/>
     <path id="NotoSansCJKjp-Regular-79c0" d="M 4992 5357 
C 4019 5126 2227 4979 742 4915 
C 787 4813 845 4627 851 4518 
C 1517 4544 2240 4589 2944 4646 
L 2944 4006 
L 410 4006 
L 410 3571 
L 2387 3571 
C 1824 3008 973 2515 192 2259 
C 301 2170 435 1997 512 1882 
C 1389 2202 2349 2835 2944 3558 
L 2944 2336 
L 3418 2336 
L 3418 3565 
C 4013 2867 4973 2259 5843 1946 
C 5914 2067 6054 2246 6163 2342 
C 5382 2573 4544 3040 3981 3571 
L 5978 3571 
L 5978 4006 
L 3418 4006 
L 3418 4691 
C 4141 4768 4813 4864 5350 4986 
L 4992 5357 
z
M 1210 2182 
L 1210 1766 
L 2150 1766 
C 1997 934 1632 243 422 -122 
C 518 -218 653 -403 704 -518 
C 2042 -77 2470 742 2650 1766 
L 3706 1766 
C 3642 1421 3558 1069 3488 806 
L 3930 742 
L 4000 1030 
L 5011 1030 
C 4941 365 4851 64 4742 -26 
C 4685 -77 4614 -83 4486 -83 
C 4346 -83 3962 -77 3584 -45 
C 3667 -173 3725 -358 3738 -493 
C 4115 -512 4480 -512 4653 -499 
C 4877 -493 5005 -454 5133 -333 
C 5312 -160 5414 256 5517 1242 
C 5523 1312 5536 1453 5536 1453 
L 4090 1453 
L 4230 2182 
L 1210 2182 
z
" transform="scale(0.015625)"/>
     <path id="NotoSansCJKjp-Regular-3001" d="M 1747 -358 
L 2182 13 
C 1786 480 1210 1062 749 1434 
L 333 1069 
C 787 698 1338 147 1747 -358 
z
" transform="scale(0.015625)"/>
     <path id="NotoSansCJKjp-Regular-53f2" d="M 1254 3904 
L 2963 3904 
L 2963 2707 
L 1254 2707 
L 1254 3904 
z
M 3456 3904 
L 5171 3904 
L 5171 2707 
L 3456 2707 
L 3456 3904 
z
M 1517 2029 
L 1088 1869 
C 1338 1318 1658 902 2048 576 
C 1651 314 1088 90 275 -83 
C 378 -192 506 -403 563 -512 
C 1427 -307 2035 -32 2464 288 
C 3315 -224 4461 -410 5946 -499 
C 5978 -333 6074 -122 6170 -6 
C 4723 51 3642 192 2835 621 
C 3270 1101 3405 1658 3443 2246 
L 5658 2246 
L 5658 4365 
L 3456 4365 
L 3456 5350 
L 2963 5350 
L 2963 4365 
L 787 4365 
L 787 2246 
L 2950 2246 
C 2918 1754 2810 1286 2419 890 
C 2054 1171 1754 1542 1517 2029 
z
" transform="scale(0.015625)"/>
     <path id="NotoSansCJKjp-Regular-8bd7" d="M 2803 1331 
C 3085 986 3398 499 3526 192 
L 3936 435 
C 3795 749 3469 1210 3181 1542 
L 2803 1331 
z
M 698 4928 
C 1037 4627 1459 4205 1651 3936 
L 1997 4269 
C 1786 4531 1357 4934 1018 5216 
L 698 4928 
z
M 3955 5344 
L 3955 4544 
L 2592 4544 
L 2592 4109 
L 3955 4109 
L 3955 3296 
L 2157 3296 
L 2157 2854 
L 4819 2854 
L 4819 2125 
L 2298 2125 
L 2298 1677 
L 4819 1677 
L 4819 70 
C 4819 -13 4787 -45 4685 -45 
C 4589 -51 4243 -58 3878 -38 
C 3942 -173 4006 -371 4032 -512 
C 4512 -512 4832 -506 5030 -435 
C 5229 -352 5286 -218 5286 70 
L 5286 1677 
L 6112 1677 
L 6112 2125 
L 5286 2125 
L 5286 2854 
L 6150 2854 
L 6150 3296 
L 4422 3296 
L 4422 4109 
L 5843 4109 
L 5843 4544 
L 4422 4544 
L 4422 5344 
L 3955 5344 
z
M 288 3366 
L 288 2906 
L 1190 2906 
L 1190 614 
C 1190 288 960 51 838 -45 
C 922 -115 1062 -282 1114 -384 
C 1210 -256 1376 -122 2445 717 
C 2387 806 2304 992 2259 1120 
L 1651 653 
L 1651 3366 
L 288 3366 
z
" transform="scale(0.015625)"/>
     <path id="NotoSansCJKjp-Regular-ff1b" d="M 3200 3482 
C 3456 3482 3686 3667 3686 3962 
C 3686 4256 3456 4442 3200 4442 
C 2944 4442 2714 4256 2714 3962 
C 2714 3667 2944 3482 3200 3482 
z
M 2682 -659 
C 3366 -397 3789 141 3789 883 
C 3789 1363 3590 1664 3238 1664 
C 2982 1664 2752 1504 2752 1203 
C 2752 896 2970 742 3232 742 
L 3347 755 
C 3328 256 3053 -83 2534 -320 
L 2682 -659 
z
" transform="scale(0.015625)"/>
     <path id="NotoSansCJKjp-Regular-4f20" d="M 1702 5350 
C 1344 4378 742 3418 115 2797 
C 198 2688 333 2438 384 2323 
C 602 2547 819 2816 1024 3104 
L 1024 -499 
L 1485 -499 
L 1485 3821 
C 1741 4262 1971 4742 2157 5216 
L 1702 5350 
z
M 2995 800 
C 3603 429 4326 -147 4678 -512 
L 5037 -154 
C 4864 19 4614 224 4333 435 
C 4826 966 5363 1574 5754 2029 
L 5414 2240 
L 5338 2208 
L 3283 2208 
L 3514 2970 
L 6106 2970 
L 6106 3424 
L 3642 3424 
L 3853 4186 
L 5811 4186 
L 5811 4634 
L 3974 4634 
L 4141 5280 
L 3667 5344 
L 3488 4634 
L 2227 4634 
L 2227 4186 
L 3366 4186 
L 3155 3424 
L 1862 3424 
L 1862 2970 
L 3021 2970 
C 2886 2515 2746 2093 2630 1760 
L 4922 1760 
C 4640 1440 4294 1050 3962 698 
C 3757 838 3546 973 3347 1094 
L 2995 800 
z
" transform="scale(0.015625)"/>
     <path id="NotoSansCJKjp-Regular-5947" d="M 339 2842 
L 339 2406 
L 4704 2406 
L 4704 77 
C 4704 -26 4672 -58 4538 -64 
C 4416 -70 3962 -77 3475 -58 
C 3552 -186 3629 -378 3654 -512 
C 4256 -512 4653 -506 4890 -442 
C 5120 -365 5197 -218 5197 70 
L 5197 2406 
L 6080 2406 
L 6080 2842 
L 339 2842 
z
M 3021 5382 
C 3002 5165 2970 4960 2931 4781 
L 659 4781 
L 659 4352 
L 2784 4352 
C 2502 3763 1907 3437 557 3264 
C 634 3174 736 2995 774 2886 
C 1984 3053 2656 3354 3034 3846 
C 3846 3565 4781 3168 5318 2899 
L 5670 3245 
C 5088 3520 4070 3930 3251 4211 
L 3309 4352 
L 5773 4352 
L 5773 4781 
L 3430 4781 
C 3469 4966 3494 5165 3514 5382 
L 3021 5382 
z
M 1453 1498 
L 3098 1498 
L 3098 621 
L 1453 621 
L 1453 1498 
z
M 998 1888 
L 998 -192 
L 1453 -192 
L 1453 230 
L 3558 230 
L 3558 1888 
L 998 1888 
z
" transform="scale(0.015625)"/>
     <path id="NotoSansCJKjp-Regular-65e0" d="M 3277 2330 
L 3277 294 
C 3277 -282 3456 -448 4128 -448 
C 4269 -448 5190 -448 5338 -448 
C 5965 -448 6112 -179 6176 851 
C 6042 883 5824 960 5715 1050 
C 5677 173 5626 26 5306 26 
C 5101 26 4326 26 4173 26 
C 3840 26 3776 70 3776 288 
L 3776 2330 
L 3277 2330 
z
M 730 4947 
L 730 4486 
L 2861 4486 
C 2854 3981 2848 3501 2803 3053 
L 333 3053 
L 333 2598 
L 2746 2598 
C 2534 1350 1958 397 256 -122 
C 365 -224 506 -397 563 -525 
C 2400 70 3008 1171 3226 2598 
L 6074 2598 
L 6074 3053 
L 3283 3053 
C 3328 3507 3341 3981 3347 4486 
L 5709 4486 
L 5709 4947 
L 730 4947 
z
" transform="scale(0.015625)"/>
     <path id="NotoSansCJKjp-Regular-53cc" d="M 5350 4422 
C 5190 3392 4890 2509 4480 1798 
C 4141 2547 3917 3443 3770 4422 
L 5350 4422 
z
M 3155 4883 
L 3155 4422 
L 3315 4422 
C 3501 3226 3763 2176 4179 1318 
C 3731 685 3181 211 2573 -96 
C 2682 -192 2829 -384 2893 -506 
C 3482 -179 4000 262 4448 838 
C 4800 269 5248 -192 5811 -525 
C 5888 -390 6042 -211 6157 -115 
C 5568 198 5107 678 4749 1280 
C 5312 2170 5702 3334 5882 4813 
L 5568 4902 
L 5485 4883 
L 3155 4883 
z
M 467 3482 
C 877 2995 1312 2419 1690 1856 
C 1306 973 806 294 224 -128 
C 339 -211 499 -390 576 -506 
C 1139 -58 1626 563 2003 1370 
C 2246 986 2451 627 2586 326 
L 2995 653 
C 2822 1005 2554 1446 2234 1907 
C 2547 2720 2771 3686 2886 4813 
L 2579 4902 
L 2496 4883 
L 410 4883 
L 410 4422 
L 2374 4422 
C 2272 3674 2112 2995 1901 2387 
C 1555 2861 1178 3334 826 3750 
L 467 3482 
z
" transform="scale(0.015625)"/>
    </defs>
    <use xlink:href="#NotoSansCJKjp-Regular-5408"/>
    <use xlink:href="#NotoSansCJKjp-Regular-6210" transform="translate(99.999985 0)"/>
    <use xlink:href="#NotoSansCJKjp-Regular-65b9" transform="translate(199.999969 0)"/>
    <use xlink:href="#NotoSansCJKjp-Regular-6848" transform="translate(299.999954 0)"/>
    <use xlink:href="#NotoSansCJKjp-Regular-5bf9" transform="translate(399.999939 0)"/>
    <use xlink:href="#NotoSansCJKjp-Regular-7167" transform="translate(499.999924 0)"/>
    <use xlink:href="#NotoSansCJKjp-Regular-ff1a" transform="translate(599.999908 0)"/>
    <use xlink:href="#NotoSansCJKjp-Regular-4f18" transform="translate(699.999893 0)"/>
    <use xlink:href="#NotoSansCJKjp-Regular-79c0" transform="translate(799.999878 0)"/>
    <use xlink:href="#NotoSansCJKjp-Regular-3001" transform="translate(899.999863 0)"/>
    <use xlink:href="#NotoSansCJKjp-Regular-53f2" transform="translate(999.999847 0)"/>
    <use xlink:href="#NotoSansCJKjp-Regular-8bd7" transform="translate(1099.999832 0)"/>
    <use xlink:href="#NotoSansCJKjp-Regular-32" transform="translate(1199.999817 0)"/>
    <use xlink:href="#NotoSansCJKjp-Regular-53ea" transform="translate(1255.499802 0)"/>
    <use xlink:href="#NotoSansCJKjp-Regular-ff1b" transform="translate(1355.499786 0)"/>
    <use xlink:href="#NotoSansCJKjp-Regular-4f20" transform="translate(1455.499771 0)"/>
    <use xlink:href="#NotoSansCJKjp-Regular-5947" transform="translate(1555.499756 0)"/>
    <use xlink:href="#NotoSansCJKjp-Regular-3001" transform="translate(1655.499741 0)"/>
    <use xlink:href="#NotoSansCJKjp-Regular-65e0" transform="translate(1755.499725 0)"/>
    <use xlink:href="#NotoSansCJKjp-Regular-53cc" transform="translate(1855.49971 0)"/>
    <use xlink:href="#NotoSansCJKjp-Regular-33" transform="translate(1955.499695 0)"/>
    <use xlink:href="#NotoSansCJKjp-Regular-53ea" transform="translate(2010.99968 0)"/>
   </g>
  </g>
 </g>
 <defs>
  <clipPath id="pa919fa655a">
   <rect x="35.35024" y="37.87697" width="318.27476" height="273.07279"/>
  </clipPath>
  <clipPath id="pdb08805c15">
   <rect x="398.725" y="37.87697" width="318.27476" height="273.07279"/>
  </clipPath>
 </defs>
</svg>
